<?xml version="1.0" encoding="UTF-8"?>
<svg version="1.1" viewBox="0 0 1000 794" xmlns="http://www.w3.org/2000/svg" xmlnsXlink="http://www.w3.org/1999/xlink">
<g transform="translate(-.42713 .32146)">
<svg width="1e3" height="794" data-background-color="#ffffff" viewBox="0 0 311 247" xmlns="http://www.w3.org/2000/svg" xmlns:xlink="http://www.w3.org/1999/xlink">
<g transform="translate(.13284 -.1)">
<svg width="310.73" height="247.2" viewBox="0 0 310.7343113568438 247.2">
<svg width="310.73" height="247.2" viewBox="0 0 395.5199999999999 314.64997725249293">
<g transform="translate(0 230.16)">
<svg width="395.52" height="84.494" viewBox="0 0 395.5199999999999 84.49426824059884">
<svg width="395.52" height="84.494" viewBox="0 0 395.5199999999999 84.49426824059884">
<g fill="#f4c095">
<rect y="68.358" width="88.385" height="4.1097" data-fill-palette-color="tertiary"/>
<rect x="307.13" y="68.358" width="88.385" height="4.1097" data-fill-palette-color="tertiary"/>
</g>
<svg width="395.52" height="45.572" viewBox="0 0 395.5199999999999 45.572170849845875">
<g>
<svg width="395.52" height="45.572" data-palette-color="#071e22" viewBox="4.470000267028809 -37.84000015258789 332.6399841308594 38.33000183105469">
<path class="undefined-text-0" d="m18.6-3.03h0.22q3.98 0 8.01-1.54l1.08 3.37q-1.86 0.93-4.47 1.31t-4.62 0.38h-0.34q-8.69 0-11.64-4.98-1.81-3.03-2.2-8.16-0.17-2.46-0.17-5.39t0.16-5.58 0.64-4.86q0.49-2.21 1.42-3.94 0.93-1.74 2.49-2.93 3.17-2.49 9.23-2.49 3.9 0 6.28 0.5 2.39 0.5 3.22 0.82l-1.1 3.85q-4.76-1.66-8.15-1.66-3.38 0-5.2 0.82-1.81 0.82-2.84 2.7-1.78 3.22-1.78 12.28v1.81q0 7.44 1.93 10.4 2.15 3.29 7.83 3.29zm16.82 3.03v-37.35h4.13v37.35h-4.13zm16.16 0v-37.35h3.3l17.19 27.14 2.22 4.62-0.54-5.13v-26.63h3.78v37.35h-3.49l-17.06-27.08-2.15-4.19 0.54 4.98v26.29h-3.79zm37.5 0v-37.35h21.17v3.61h-17.02v12.89h13.72v3.59h-13.72v13.67h17.68v3.59h-21.83zm42.01-3.03h0.22q3.98 0 8.01-1.54l1.08 3.37q-1.86 0.93-4.47 1.31t-4.62 0.38h-0.34q-8.69 0-11.64-4.98-1.81-3.03-2.2-8.16-0.17-2.46-0.17-5.39t0.16-5.58 0.64-4.86q0.49-2.21 1.42-3.94 0.93-1.74 2.49-2.93 3.17-2.49 9.23-2.49 3.9 0 6.28 0.5 2.39 0.5 3.22 0.82l-1.1 3.85q-4.76-1.66-8.15-1.66-3.38 0-5.2 0.82-1.81 0.82-2.84 2.7-1.78 3.22-1.78 12.28v1.81q0 7.44 1.93 10.4 2.15 3.29 7.83 3.29zm30.1 3.52h-1.51q-8.69 0-11.47-5.47-1.64-3.17-1.93-8.47-0.13-2.49-0.13-5.42t0.18-5.56q0.17-2.62 0.67-4.74 0.5-2.13 1.41-3.75 0.92-1.63 2.41-2.72 3.07-2.2 8.86-2.2h1.51q9.06 0 11.6 4.88 1.59 3.05 1.78 8.5 0.1 2.66 0.1 5.62 0 2.97-0.15 5.47-0.14 2.51-0.61 4.63-0.46 2.12-1.35 3.83t-2.41 2.91q-3.12 2.49-8.96 2.49zm-1.51-3.52h1.46q2.69 0 4.46-0.58 1.77-0.59 2.8-2.05 1.9-2.71 1.9-10.4v-2.64q0-3.69-0.2-6.57-0.19-2.88-1.05-4.86-1.75-4.1-7.61-4.1h-2.05q-5.96 0-7.62 3.83-1.05 2.45-1.15 5.77t-0.1 5.93v2.64q0 7.2 2.15 10.15 2.08 2.88 7.01 2.88zm25.17 3.03v-37.35h3.29l17.19 27.14 2.22 4.62-0.53-5.13v-26.63h3.78v37.35h-3.49l-17.07-27.08-2.14-4.19 0.53 4.98v26.29h-3.78zm37.5 0v-37.35h3.29l17.19 27.14 2.22 4.62-0.54-5.13v-26.63h3.79v37.35h-3.49l-17.07-27.08-2.15-4.19 0.54 4.98v26.29h-3.78zm37.49 0v-37.35h21.17v3.61h-17.02v12.89h13.72v3.59h-13.72v13.67h17.68v3.59h-21.83zm42.02-3.03h0.22q3.98 0 8-1.54l1.08 3.37q-1.86 0.93-4.47 1.31t-4.61 0.38h-0.34q-8.7 0-11.65-4.98-1.81-3.03-2.2-8.16-0.17-2.46-0.17-5.39t0.16-5.58 0.65-4.86 1.41-3.94q0.93-1.74 2.49-2.93 3.18-2.49 9.23-2.49 3.91 0 6.29 0.5t3.21 0.82l-1.1 3.85q-4.76-1.66-8.14-1.66t-5.2 0.82-2.85 2.7q-1.78 3.22-1.78 12.28v1.81q0 7.44 1.93 10.4 2.15 3.29 7.84 3.29zm20.8 3.03v-33.74h-9.97v-3.61h24.42v3.61h-10.3v33.74h-4.15z" fill="#071e22" data-fill-palette-color="primary"/>
</svg>
</g>
</svg>
<g transform="translate(88.385 56.331)">
<svg width="218.75" height="28.164" viewBox="0 0 218.74948333106494 28.163601585204756">
<g transform="translate(8)">
<svg width="202.75" height="28.164" data-palette-color="#1d7874" viewBox="0.30000001192092896 -37 356.30999755859375 49.5">
<path class="undefined-text-1" d="m6.65-33.5q2.55-1.65 5.48-2.58 2.92-0.92 5.72-0.92 0.35 0 0.78 0.02 0.42 0.03 1.22 0.08l-7.7 35.9q1.15 0.25 2.48 0.82 1.32 0.58 4.02 2.03 4.05 2.2 6.2 2.9t4.1 0.7q1.15 0 2.18-0.2 1.02-0.2 2.02-0.6-0.4 3.6-1.8 5.73-1.4 2.12-3.4 2.12-1.8 0-3.82-0.97-2.03-0.98-6.13-4.23-4.7-3.8-7.3-4.97-2.6-1.18-5.05-1.18-0.45 0-0.7 0t-0.45 0.05l7.45-34.65q-3.4 1.4-5.2 4.2t-1.8 6.7q0 0.95 0.13 1.65 0.12 0.7 0.42 1.35 0.1 0.2 0.13 0.27 0.02 0.08 0.02 0.13-2.8 0-4.07-1.18-1.28-1.17-1.28-3.67t1.68-5q1.67-2.5 4.67-4.5zm30.65 12.85q0 4.15-3.4 7.22-3.4 3.08-8.1 3.33-0.05 0.85-0.08 1.27-0.02 0.43-0.02 0.73 0 2.3 0.77 3.25 0.78 0.95 2.83 0.95 2.35 0 4.32-1.08 1.98-1.07 4.53-3.97h1.7q-2.9 4.7-6.3 6.97-3.4 2.28-7.45 2.28-3.85 0-5.83-2-1.97-2-1.97-5.95 0-2.85 0.9-6.05t2.4-5.7q1.85-3 4.42-4.53 2.58-1.52 5.78-1.52 2.75 0 4.12 1.17 1.38 1.18 1.38 3.63zm-5.1-2.15q-1.7 0-3.43 3.02-1.72 3.03-2.57 7.28 2.9-0.2 5.07-2.68 2.18-2.47 2.18-5.57 0-1.05-0.3-1.55t-0.95-0.5zm7.35-0.2 0.4-2h1.64l1.5-6.9 7.41-1-1.7 7.9h3l-0.4 2h-3l-3.2 15q-0.11 0.45-0.15 0.82-0.05 0.38-0.05 0.78 0 1 0.47 1.42 0.48 0.43 1.58 0.43 1.4 0 2.65-1.23 1.25-1.22 1.85-3.17h2.1q-1.6 4.55-4.31 6.9-2.69 2.35-6.19 2.35-2.5 0-3.93-1.58-1.42-1.57-1.42-4.42 0-0.65 0.1-1.48 0.09-0.82 0.3-1.77l3-14.05h-1.65zm27.69 14.65q0 0.6-0.05 1.05t-0.15 0.85q1-0.6 1.95-1.25t1.65-1.25h2.1q-1.55 1.8-3.42 3.32-1.88 1.53-4.23 2.93-1.35 1.45-3.45 2.22-2.1 0.78-4.4 0.78-3.35 0-5.32-1.83-1.98-1.82-1.98-4.57 0-1.55 0.75-2.83 0.75-1.27 1.9-1.82 1.7-3.05 3.18-6.53 1.47-3.47 2.97-8.27l7.4-1q0.15 3.75 0.35 6.85t0.5 6.75q0.15 2.1 0.2 2.95t0.05 1.65zm-8.2-11.8q-0.65 2.05-1.57 4.27-0.93 2.23-2.48 5.18 0.55 0.25 0.85 0.7t0.3 1.05q0 0.95-0.65 1.7t-1.55 0.75q-0.5 0-0.85-0.18-0.35-0.17-0.5-0.47 0 1.85 0.73 2.67 0.72 0.83 2.32 0.83 2.05 0 3.2-1.2t1.15-3.45q0-0.7-0.05-1.43-0.05-0.72-0.2-2.42-0.25-2.35-0.4-4.15t-0.3-3.85zm22.05 14.45q0-0.65 0.1-1.48 0.1-0.82 0.3-1.77l3.4-16.05h7.2l-3.6 17q-0.05 0.3-0.1 0.62-0.05 0.33-0.05 0.63 0 1.05 0.37 1.62 0.38 0.58 1.13 0.58 1.3 0 2.32-1.13 1.03-1.12 1.68-3.27l3.4-16.05h7.2l-3.6 17q-0.1 0.55-0.18 1.02-0.07 0.48-0.07 0.78 0 0.8 0.42 1.22 0.43 0.43 1.28 0.43 1.75 0 3.42-1.83 1.68-1.82 3.03-5.17 1-2.4 1.6-5.05t0.6-4.65q-0.1 0.2-0.63 0.35-0.52 0.15-0.97 0.15-0.8 0-1.3-0.78-0.5-0.77-0.5-1.77 0-1.25 0.82-1.98 0.83-0.72 2.28-0.72 1.55 0 2.35 1.15t0.8 3.2q0 3.4-0.88 7.12-0.87 3.73-2.37 6.78-2 3.95-4.8 6t-6.2 2.05q-2.5 0-4.03-1.08-1.52-1.07-1.97-3.12-1.45 2.1-3.18 3.15-1.72 1.05-3.92 1.05-2.5 0-3.93-1.58-1.42-1.57-1.42-4.42zm49.7-17v0.35l0.55-2.65h7.2l-3.6 17q-0.1 0.45-0.15 0.82-0.05 0.38-0.05 0.78 0 1.1 0.5 1.62 0.5 0.53 1.55 0.53 1.3 0 2.35-1.23 1.05-1.22 1.7-3.47h2.1q-1.6 4.6-4.15 6.93-2.55 2.32-5.9 2.32-2.15 0-3.43-1.2-1.27-1.2-1.47-3.4-1.55 2.3-3.43 3.45-1.87 1.15-4.02 1.15-3.1 0-4.88-2.1-1.77-2.1-1.77-5.95 0-2.8 0.85-5.85t2.35-5.55q1.85-2.95 4.3-4.53 2.45-1.57 5.35-1.57 1.95 0 3 0.67 1.05 0.68 1.05 1.88zm-2.85 13.75 2.4-11.3q0-0.75-0.55-1.33-0.55-0.57-1.5-0.57-2.75 0-4.88 4.6-2.12 4.6-2.12 9.1 0 1.95 0.55 2.92 0.55 0.98 1.95 0.98 1.3 0 2.52-1.25 1.23-1.25 1.63-3.15zm14.29-14.05 0.4-2h1.65l1.5-6.9 7.4-1-1.7 7.9h3l-0.4 2h-3l-3.2 15q-0.1 0.45-0.15 0.82-0.05 0.38-0.05 0.78 0 1 0.48 1.42 0.47 0.43 1.57 0.43 1.4 0 2.65-1.23 1.25-1.22 1.85-3.17h2.1q-1.6 4.55-4.3 6.9t-6.2 2.35q-2.5 0-3.92-1.58-1.43-1.57-1.43-4.42 0-0.65 0.1-1.48 0.1-0.82 0.3-1.77l3-14.05h-1.65zm30.35 2.15q0 1.7-0.72 2.67-0.73 0.98-1.93 0.98-0.4 0-0.85-0.15t-0.9-0.45q0.3-0.8 0.45-1.55t0.15-1.4q0-1-0.35-1.53-0.35-0.52-1.05-0.52-2.2 0-4.3 5.07-2.1 5.08-2.1 9.63 0 2.3 0.78 3.25 0.77 0.95 2.82 0.95 2.35 0 4.33-1.08 1.97-1.07 4.52-3.97h1.7q-2.9 4.7-6.3 6.97-3.4 2.28-7.45 2.28-3.85 0-5.82-2-1.98-2-1.98-5.95 0-2.85 0.88-6.05 0.87-3.2 2.42-5.7 1.85-3 4.43-4.53 2.57-1.52 5.72-1.52 2.75 0 4.15 1.17 1.4 1.18 1.4 3.43zm13.4 15.5q0-0.9 0.22-2.25 0.23-1.35 0.93-4.3 0.7-2.85 0.9-4.1t0.2-2.1q0-1.25-0.48-1.9-0.47-0.65-1.37-0.65-1.2 0-2.33 1.42-1.12 1.43-1.47 2.98l-3.45 16.25h-7.2l7.25-34 7.4-1-2.7 12.6q1.25-1.4 2.7-2.1t3.15-0.7q2.65 0 4.1 1.45t1.45 4.2q0 1.15-0.28 2.73-0.27 1.57-1.07 4.82-0.65 2.55-0.85 3.6t-0.2 1.75q0 1.05 0.5 1.57 0.5 0.53 1.5 0.53 1.25 0 2.15-0.85t2.05-3.55h2.1q-1.6 4.65-3.88 6.95-2.27 2.3-5.42 2.3-2.8 0-4.35-1.53-1.55-1.52-1.55-4.12zm48.44 0q0-0.9 0.23-2.25 0.22-1.35 0.92-4.3 0.7-2.85 0.9-4.1t0.2-2.1q0-1.25-0.45-1.9t-1.35-0.65q-1.2 0-2.22 1.22-1.03 1.23-1.68 3.38l-3.4 16.05h-7.2l3.65-17.25q0.1-0.3 0.13-0.6 0.02-0.3 0.02-0.65 0-1-0.4-1.6t-1.1-0.6q-1.3 0-2.35 1.22-1.05 1.23-1.7 3.43l-3.4 16.05h-7.2l5.3-25h7.2l-0.55 2.6q1.25-1.45 2.75-2.15t3.35-0.7q2.2 0 3.48 1.07 1.27 1.08 1.67 3.23 1.4-2.15 3.1-3.2t3.85-1.05q2.65 0 4.1 1.45t1.45 4.2q0 1.15-0.27 2.73-0.28 1.57-1.08 4.82-0.65 2.55-0.85 3.6t-0.2 1.75q0 1.05 0.5 1.57 0.5 0.53 1.5 0.53 1.25 0 2.15-0.85t2.05-3.55h2.1q-1.6 4.65-3.87 6.95-2.28 2.3-5.43 2.3-2.8 0-4.35-1.53-1.55-1.52-1.55-4.12zm12.4-2.35q0-2.85 0.93-6.05 0.92-3.2 2.52-5.7 1.85-2.95 4.45-4.48 2.6-1.52 5.8-1.52t4.8 2 1.6 6q0.1 0.05 0.23 0.07 0.12 0.03 0.32 0.03 1.55 0 3.7-0.85t4-2.15l0.45 1.35q-1.4 1.5-3.72 2.6-2.33 1.1-5.13 1.55-0.6 6.75-3.9 10.9t-8.05 4.15q-3.9 0-5.95-2t-2.05-5.9zm14.1-14.7q-2.4 0-4.52 4.85-2.13 4.85-2.13 9.2 0 2.35 0.53 3.2 0.52 0.85 2.02 0.85 1.85 0 3.53-3 1.67-3 2.27-7.4-0.7-0.15-1.02-0.68-0.33-0.52-0.33-1.42 0-0.95 0.4-1.65t1.15-1.05q-0.1-1.6-0.52-2.25-0.43-0.65-1.38-0.65zm24.15 1.65q-0.8 0-1.3-0.78-0.5-0.77-0.5-1.77 0-1.25 0.82-1.98 0.83-0.72 2.28-0.72 1.55 0 2.35 1.15t0.8 3.2q0 3.4-0.88 7.12-0.87 3.73-2.37 6.78-2 3.95-4.8 6t-6.2 2.05q-2.95 0-4.55-1.53-1.6-1.52-1.6-4.37 0-0.55 0.07-1.18 0.08-0.62 0.18-1.22l3.6-17h7.2l-3.6 17q-0.1 0.55-0.18 1.02-0.07 0.48-0.07 0.78 0 0.8 0.42 1.22 0.43 0.43 1.28 0.43 1.75 0 3.42-1.83 1.68-1.82 3.03-5.17 1-2.4 1.6-5.05t0.6-4.65q-0.1 0.2-0.63 0.35-0.52 0.15-0.97 0.15zm17.55-10.9q0 1.65-1.18 2.8-1.17 1.15-2.82 1.15t-2.8-1.15-1.15-2.8 1.15-2.83q1.15-1.17 2.8-1.17t2.82 1.17q1.18 1.18 1.18 2.83zm-12.75 25.95q0-0.65 0.1-1.48 0.1-0.82 0.3-1.77l3.4-16.05h7.2l-3.6 17q-0.1 0.45-0.15 0.82-0.05 0.38-0.05 0.78 0 1 0.47 1.42 0.48 0.43 1.58 0.43 1.4 0 2.65-1.23 1.25-1.22 1.85-3.17h2.1q-1.6 4.55-4.3 6.9t-6.2 2.35q-2.5 0-3.93-1.58-1.42-1.57-1.42-4.42zm32.09-14.95q0 4.15-3.4 7.22-3.4 3.08-8.1 3.33-0.05 0.85-0.07 1.27-0.03 0.43-0.03 0.73 0 2.3 0.78 3.25 0.77 0.95 2.82 0.95 2.35 0 4.33-1.08 1.97-1.07 4.52-3.97h1.7q-2.9 4.7-6.3 6.97-3.4 2.28-7.45 2.28-3.85 0-5.82-2-1.98-2-1.98-5.95 0-2.85 0.9-6.05t2.4-5.7q1.85-3 4.43-4.53 2.57-1.52 5.77-1.52 2.75 0 4.13 1.17 1.37 1.18 1.37 3.63zm-5.1-2.15q-1.7 0-3.42 3.02-1.73 3.03-2.58 7.28 2.9-0.2 5.08-2.68 2.17-2.47 2.17-5.57 0-1.05-0.3-1.55t-0.95-0.5zm20.7 14.45q0 0.6-0.05 1.05t-0.15 0.85q1-0.6 1.95-1.25t1.65-1.25h2.1q-1.55 1.8-3.42 3.32-1.88 1.53-4.23 2.93-1.35 1.45-3.45 2.22-2.1 0.78-4.4 0.78-3.35 0-5.32-1.83-1.98-1.82-1.98-4.57 0-1.55 0.75-2.83 0.75-1.27 1.9-1.82 1.7-3.05 3.18-6.53 1.47-3.47 2.97-8.27l7.4-1q0.15 3.75 0.35 6.85t0.5 6.75q0.15 2.1 0.2 2.95t0.05 1.65zm-8.2-11.8q-0.65 2.05-1.57 4.27-0.93 2.23-2.48 5.18 0.55 0.25 0.85 0.7t0.3 1.05q0 0.95-0.65 1.7t-1.55 0.75q-0.5 0-0.85-0.18-0.35-0.17-0.5-0.47 0 1.85 0.73 2.67 0.72 0.83 2.32 0.83 2.05 0 3.2-1.2t1.15-3.45q0-0.7-0.05-1.43-0.05-0.72-0.2-2.42-0.25-2.35-0.4-4.15t-0.3-3.85zm16.5 8.6 3.55-23.45h7.2l-6.5 23.45h-4.25zm-3.2 7.55q0-1.65 1.17-2.8 1.18-1.15 2.83-1.15t2.8 1.15 1.15 2.8-1.15 2.82q-1.15 1.18-2.8 1.18t-2.83-1.18q-1.17-1.17-1.17-2.82z" fill="#1d7874" data-fill-palette-color="secondary"/>
</svg>
</g>
</svg>
</g>
</svg>
</svg>
</g>
<g transform="translate(93.441)">
<svg width="208.64" height="208.64" viewBox="0 0 208.63871740079767 208.63871740079767">
<svg/>
<svg width="208.64" height="208.64" viewBox="0 0 208.63871740079767 208.63871740079767">
<path d="m0 104.32c0-57.614 46.705-104.32 104.32-104.32s104.32 46.705 104.32 104.32c0 57.614-46.705 104.32-104.32 104.32-57.614 0-104.32-46.705-104.32-104.32zm104.32 100.21c55.344 0 100.21-44.865 100.21-100.21 0-55.344-44.865-100.21-100.21-100.21-55.344 0-100.21 44.865-100.21 100.21 0 55.344 44.865 100.21 100.21 100.21z" fill="#f4c095" stroke="transparent" data-fill-palette-color="tertiary"/>
<g transform="translate(41.281 59.53)">
<svg width="126.08" height="89.579" viewBox="0 0 126.07616835520889 89.57867490791467">
<svg class="icon-s-0" width="126.08" height="89.579" enable-background="new 0 0 100 100" data-fill-palette-color="accent" version="1.1" viewBox="10 21.579999923706055 80 56.84098815917969" xml:space="preserve" xmlns="http://www.w3.org/2000/svg" xmlns:xlink="http://www.w3.org/1999/xlink"><g fill="#679289" data-fill-palette-color="accent"><g data-fill-palette-color="accent"><path d="m68.984 60.346c-4.03 0-7.559 2.633-9.499 6.57-1.229-0.947-2.684-1.498-4.242-1.498-1.827 0-3.511 0.754-4.855 2.02-1.739-2.738-4.454-4.504-7.507-4.504-1.177 0-2.305 0.264-3.345 0.744-0.591-0.969-1.653-1.617-2.871-1.617-1.859 0-3.367 1.506-3.367 3.365 0 1.205 0.638 2.26 1.591 2.855-0.325 0.617-0.603 1.275-0.829 1.965-0.263 0.174-0.513 0.371-0.747 0.594-1.199-1.891-3.075-3.109-5.182-3.109-3.62 0-6.558 3.59-6.558 8.018 0 1.479 0.979 2.672 2.187 2.672h8.741c0.088 0 0.174-8e-3 0.259-0.02 0.076 0.012 0.154 0.02 0.234 0.02h16.219c0.128 0 0.251-0.012 0.374-0.027 0.111 0.016 0.226 0.027 0.341 0.027h10.632c0.163 0 0.325-0.02 0.481-0.055 0.183 0.033 0.365 0.055 0.554 0.055h14.779c2.042 0 3.697-2.021 3.697-4.518 0-7.485-4.967-13.557-11.087-13.557z" data-fill-palette-color="accent"/><circle cx="68.984" cy="52.255" r="6.8" data-fill-palette-color="accent"/><circle cx="42.881" cy="56.001" r="5.8" data-fill-palette-color="accent"/><circle cx="55.243" cy="59.597" r="4.9" data-fill-palette-color="accent"/><circle cx="28.131" cy="62.943" r="4" data-fill-palette-color="accent"/></g><path d="M10 21.58v45h12.254c-0.706-1.094-1.131-2.383-1.131-3.777 0-3.865 3.144-7.01 7.008-7.01 2.629 0 4.921 1.457 6.12 3.604 0.161-0.066 0.326-0.123 0.493-0.176-0.429-1.037-0.669-2.17-0.669-3.361 0-4.855 3.95-8.807 8.806-8.807 3.765 0 6.977 2.379 8.234 5.709 1.201-0.744 2.613-1.182 4.128-1.182 1.458 0 2.82 0.404 3.992 1.098-0.011-0.188-0.028-0.373-0.028-0.564 0-5.391 4.386-9.777 9.777-9.777s9.777 4.387 9.777 9.777c0 2.793-1.184 5.311-3.066 7.094 2.59 1.656 4.684 4.244 5.972 7.373H90v-45H10z" data-fill-palette-color="accent"/></g></svg>
</svg>
</g>
</svg>
</svg>
</g>
</svg>
</svg>
<rect width="310.73" height="247.2" fill="none" visibility="hidden"/>
</g>
</svg>
</g>
</svg>
